<svg width="25" height="24" viewBox="0 0 25 24" fill="none" xmlns="http://www.w3.org/2000/svg">
<path d="M4.90172 22.1961L5.22202 21.2487L4.90172 22.1961ZM1.30515 18.6137L2.25169 18.2911L1.30515 18.6137ZM23.6948 18.6137L22.7483 18.2911L23.6948 18.6137ZM20.0983 22.1961L19.778 21.2487L20.0983 22.1961ZM20.0983 6.57667L19.778 7.52399L20.0983 6.57667ZM23.6948 10.159L22.7483 10.4816L23.6948 10.159ZM4.90172 6.57667L5.22202 7.52399L4.90172 6.57667ZM1.30515 10.159L2.25169 10.4816L1.30515 10.159ZM9.14583 7.27273H15.8542V5.27273H9.14583V7.27273ZM15.8542 21.5H9.14583V23.5H15.8542V21.5ZM9.14583 21.5C6.83476 21.5 5.92587 21.4867 5.22202 21.2487L4.58142 23.1434C5.67547 23.5133 6.99669 23.5 9.14583 23.5V21.5ZM0 14.3864C0 16.5261 -0.0134729 17.8445 0.35861 18.9363L2.25169 18.2911C2.01347 17.5921 2 16.6892 2 14.3864H0ZM5.22202 21.2487C3.82269 20.7756 2.72564 19.6818 2.25169 18.2911L0.35861 18.9363C1.03388 20.9177 2.59526 22.4718 4.58142 23.1434L5.22202 21.2487ZM23 14.3864C23 16.6892 22.9865 17.5921 22.7483 18.2911L24.6414 18.9363C25.0135 17.8445 25 16.5261 25 14.3864H23ZM15.8542 23.5C18.0033 23.5 19.3245 23.5133 20.4186 23.1434L19.778 21.2487C19.0741 21.4867 18.1652 21.5 15.8542 21.5V23.5ZM22.7483 18.2911C22.2744 19.6818 21.1773 20.7756 19.778 21.2487L20.4186 23.1434C22.4047 22.4718 23.9661 20.9177 24.6414 18.9363L22.7483 18.2911ZM15.8542 7.27273C18.1652 7.27273 19.0741 7.28601 19.778 7.52399L20.4186 5.62936C19.3245 5.25944 18.0033 5.27273 15.8542 5.27273V7.27273ZM25 14.3864C25 12.2466 25.0135 10.9282 24.6414 9.83645L22.7483 10.4816C22.9865 11.1806 23 12.0835 23 14.3864H25ZM19.778 7.52399C21.1773 7.99712 22.2744 9.09091 22.7483 10.4816L24.6414 9.83645C23.9661 7.85503 22.4047 6.3009 20.4186 5.62936L19.778 7.52399ZM9.14583 5.27273C6.99669 5.27273 5.67547 5.25944 4.58142 5.62936L5.22202 7.52399C5.92587 7.28601 6.83476 7.27273 9.14583 7.27273V5.27273ZM2 14.3864C2 12.0835 2.01347 11.1806 2.25169 10.4816L0.35861 9.83645C-0.0134729 10.9282 0 12.2466 0 14.3864H2ZM4.58142 5.62936C2.59526 6.3009 1.03388 7.85503 0.35861 9.83645L2.25169 10.4816C2.72564 9.09091 3.82269 7.99712 5.22202 7.52399L4.58142 5.62936ZM11.5417 2.5H13.4583V0.5H11.5417V2.5ZM15.3333 4.36364V6.27273H17.3333V4.36364H15.3333ZM7.66667 4.36364V6.27273H9.66667V4.36364H7.66667ZM13.4583 2.5C14.4976 2.5 15.3333 3.33811 15.3333 4.36364H17.3333C17.3333 2.22608 15.5947 0.5 13.4583 0.5V2.5ZM11.5417 0.5C9.4053 0.5 7.66667 2.22608 7.66667 4.36364H9.66667C9.66667 3.33811 10.5024 2.5 11.5417 2.5V0.5Z" fill="#323232"/>
<path d="M8 10.5C8 10.3141 8 10.2212 8.01537 10.1439C8.0785 9.82658 8.32658 9.5785 8.64393 9.51537C8.72121 9.5 8.81414 9.5 9 9.5C9.18586 9.5 9.27879 9.5 9.35607 9.51537C9.67342 9.5785 9.9215 9.82658 9.98463 10.1439C10 10.2212 10 10.3141 10 10.5C10 10.6859 10 10.7788 9.98463 10.8561C9.9215 11.1734 9.67342 11.4215 9.35607 11.4846C9.27879 11.5 9.18586 11.5 9 11.5C8.81414 11.5 8.72121 11.5 8.64393 11.4846C8.32658 11.4215 8.0785 11.1734 8.01537 10.8561C8 10.7788 8 10.6859 8 10.5Z" fill="#323232"/>
<path d="M16 10.5C16 10.3141 16 10.2212 16.0154 10.1439C16.0785 9.82658 16.3266 9.5785 16.6439 9.51537C16.7212 9.5 16.8141 9.5 17 9.5C17.1859 9.5 17.2788 9.5 17.3561 9.51537C17.6734 9.5785 17.9215 9.82658 17.9846 10.1439C18 10.2212 18 10.3141 18 10.5C18 10.6859 18 10.7788 17.9846 10.8561C17.9215 11.1734 17.6734 11.4215 17.3561 11.4846C17.2788 11.5 17.1859 11.5 17 11.5C16.8141 11.5 16.7212 11.5 16.6439 11.4846C16.3266 11.4215 16.0785 11.1734 16.0154 10.8561C16 10.7788 16 10.6859 16 10.5Z" fill="#323232"/>
</svg>
